<?xml version="1.0" encoding="UTF-8" standalone="no"?>
<!DOCTYPE svg PUBLIC "-//W3C//DTD SVG 1.1//EN" "http://www.w3.org/Graphics/SVG/1.1/DTD/svg11.dtd">
<svg xmlns="http://www.w3.org/2000/svg" xmlns:dc="http://purl.org/dc/elements/1.1/" version="1.1" xmlns:xl="http://www.w3.org/1999/xlink" viewBox="-1 0 984 929" width="984" height="929">
  <defs/>
  <metadata> Produced by OmniGraffle 7.18.5\n2022-01-13 02:51:42 +0000</metadata>
  <g id="Canvas_1" stroke-dasharray="none" fill-opacity="1" fill="none" stroke-opacity="1" stroke="none">
    <title>Canvas 1</title>
    <g id="Canvas_1_Layer_1">
      <title>Layer 1</title>
      <g id="Group_2">
        <g id="Graphic_6">
          <path d="M 457.35407 .9 C 442.3143 1.5 411.35483 4.4 395.4351 6.7 C 303.2766 19.7 227.51786 51.2 164.3189 102.8 C 129.27947 131.4 96.64001 169.6 71.76042 211.2 C 31.84108 277.6 5.841508 362.2 -.3183905 445.3 C -.7983826 452.3 -1.1183773 458.5 -.95838 459.1 C -.7983826 459.7 .9615884 457.5 2.8815568 454.2 C 4.881524 450.8 9.761443 444.1 13.841376 439.2 C 36.401004 412.3 70.320446 394.7 113.59973 387.6 C 126.71952 385.5 160.95895 384.6 172.71876 386.1 C 202.39827 390 228.47784 402.9 249.5175 424.1 C 255.9974 430.6 266.9572 444.8 269.19717 449.4 C 269.91716 451 270.71714 452.2 271.03714 452.2 C 271.35713 452.2 271.83713 448.7 272.15712 444.4 C 274.63708 409 283.59693 355.2 294.07676 312 C 310.7965 243.4 336.55606 174 362.31563 128.3 C 391.91515 75.7 429.9145 32.1 467.9939 7.2 C 473.1138 3.8 477.35374 .8 477.35374 .6 C 477.35374 .2 471.51384 .3 457.35407 .9 Z" fill="black"/>
        </g>
        <g id="Graphic_5">
          <path d="M 501.75334 3.9 C 553.7525 35 600.3117 90.9 634.39115 162.8 C 670.71055 239.6 699.9901 350.5 708.1499 441.7 C 708.9499 449.9 709.5899 456.8 709.6699 456.9 C 709.7499 457.1 713.10985 453.7 717.0298 449.5 C 749.3493 414.8 784.4687 392.1 814.9482 386.1 C 822.788 384.6 856.1475 385.5 868.5473 387.7 C 903.5867 393.6 930.2263 405.1 952.7859 423.8 C 961.7458 431.3 973.7456 445.2 979.0255 454.2 C 980.9454 457.5 982.7054 459.7 982.8654 459.1 C 983.7454 455.8 980.1455 420.5 976.8655 399.7 C 959.4258 289.6 911.9066 192.7 842.1477 124.7 C 762.389 47 651.3509 4.9 514.5531 .6 L 495.35344 0 Z" fill="black"/>
        </g>
        <g id="Graphic_4">
          <path d="M 478.8737 13.1 C 429.35453 43.9 382.8753 101.7 351.3558 171.6 C 319.27634 242.7 293.19677 338.6 283.83693 420.2 C 281.91696 436.9 280.317 456.2 280.79698 456.8 C 280.95698 457 284.8769 454.6 289.43684 451.4 C 341.276 415.4 401.595 392.6 461.754 386.2 C 482.87365 384 515.8331 385.1 539.7527 388.8 C 590.8719 396.8 649.5109 421 694.0702 452.6 C 696.8701 454.6 699.3501 456 699.5901 455.7 C 700.3901 454.8 698.1501 431.3 695.27015 410.3 C 686.8703 347.8 671.43054 285.4 649.2709 224.5 C 626.0713 160.3 599.3517 112.3 564.5523 71.7 C 543.91264 47.6 516.6331 24.4 496.4734 13.6 C 492.7935 11.6 489.35354 9.4 488.87355 8.7 C 488.23356 7.6 486.2336 8.5 478.8737 13.1 Z" fill="black"/>
        </g>
        <g id="Graphic_3">
          <path d="M 475.75377 626.9006 C 475.75377 786.8296 475.99376 862.1721 476.63375 865.6764 C 479.8337 885.4938 489.03355 901.0215 504.2333 912.4406 C 517.4331 922.3493 533.8328 928.0287 551.7525 928.8746 C 589.8319 930.808 625.3513 910.2656 644.151 875.5246 C 653.5908 857.9427 658.63075 838.4274 659.5107 815.5286 C 659.9907 803.6865 659.9107 803.0219 658.31076 800.6051 C 653.19084 793.05275 638.2311 792.509 631.7512 799.6384 C 629.9112 801.6927 629.7512 802.4781 629.1912 812.7493 C 627.5913 843.1401 619.5914 865.9784 604.55164 882.9562 C 599.3517 888.7564 588.1519 897.2755 581.912 900.0547 C 565.5123 907.3654 549.35255 907.8488 535.0328 901.5048 C 522.073 895.8254 511.1132 882.4124 509.2732 869.9661 C 507.03325 855.2239 506.79325 832.3251 506.39326 616.26684 L 505.99327 393.2 L 490.8735 393.2 L 475.75377 393.2 Z" fill="black"/>
        </g>
      </g>
    </g>
  </g>
</svg>
